<svg xmlns="http://www.w3.org/2000/svg" viewBox="0 0 256 256">
  <style>
    #nova { fill: #8819EC; }
  </style>
  <rect x="0" y="0" width="256" height="256" style="fill:none;"/>
  <path id="nova" d="M209.311,152.585C209.423,153.583 209.48,154.597 209.48,155.625C209.48,157.163 209.352,158.671 209.105,160.14L209.041,160.349C208.588,162.236 208.056,164.097 207.448,165.929C197.23,196.744 165.63,219.223 128.275,219.223C93.284,219.223 63.344,199.5 51.295,171.677C50.366,169.525 48.033,168.142 45.483,168.231C21.49,169.078 2.313,162.065 0.193,150.594C-0.063,149.213 -0.061,147.82 0.179,146.428C1.448,139.079 9.372,131.734 21.295,126.142C21.464,126.022 21.66,125.929 21.873,125.874C22.022,125.835 22.18,125.814 22.344,125.814C23.282,125.814 24.043,126.503 24.043,127.352C24.043,127.66 23.943,127.947 23.771,128.187C23.64,128.371 23.467,128.527 23.264,128.646C20.17,131.529 18.635,134.66 19.195,137.689C20.293,143.628 29.142,147.56 40.981,148.204L42.012,148.205C43.253,148.205 44.493,148.2 45.731,148.191C46.781,148.183 47.83,148.172 48.878,148.157C50.413,148.136 51.945,148.108 53.476,148.072C56.257,148.008 59.033,147.92 61.801,147.809C76.957,147.202 91.914,145.9 106.635,143.939C119.117,142.277 143.301,136.919 159.41,133.205C161.733,132.669 163.888,132.168 165.816,131.717C188.89,126.315 204.324,135.311 208.489,148.345C208.872,149.718 209.149,151.134 209.311,152.585ZM46.689,103.415C46.577,102.417 46.52,101.403 46.52,100.375C46.52,98.837 46.648,97.329 46.895,95.86L46.959,95.651C47.412,93.764 47.944,91.903 48.552,90.071C58.77,59.256 90.37,36.777 127.725,36.777C162.716,36.777 192.656,56.5 204.705,84.323C205.634,86.475 207.967,87.858 210.517,87.769C234.51,86.922 253.687,93.935 255.807,105.406C256.063,106.787 256.061,108.18 255.821,109.572C254.552,116.921 246.628,124.266 234.705,129.858C234.536,129.978 234.34,130.071 234.127,130.126C233.978,130.165 233.82,130.186 233.656,130.186C232.718,130.186 231.957,129.497 231.957,128.648C231.957,128.34 232.057,128.053 232.229,127.813C232.36,127.629 232.533,127.473 232.736,127.354C235.83,124.471 237.365,121.34 236.805,118.311C235.707,112.372 226.858,108.44 215.019,107.796L213.988,107.795C212.747,107.795 211.507,107.8 210.269,107.809C209.219,107.817 208.17,107.828 207.122,107.843C205.587,107.864 204.055,107.892 202.524,107.928C199.743,107.992 196.967,108.08 194.199,108.191C179.043,108.798 164.086,110.1 149.365,112.061C136.883,113.723 112.699,119.081 96.59,122.795C94.267,123.331 92.112,123.832 90.184,124.283C67.11,129.685 51.676,120.689 47.511,107.655C47.128,106.282 46.851,104.866 46.689,103.415Z"/>
</svg>
